<mxfile host="app.diagrams.net" modified="2021-11-04T12:38:09.877Z" agent="5.0 (Windows NT 10.0; Win64; x64) AppleWebKit/537.36 (KHTML, like Gecko) Chrome/97.0.4677.0 Safari/537.36 Edg/97.0.1060.2" etag="1BNOnD2ldEz24VSn7KU6" version="15.6.8" type="github">
  <diagram id="MpX9gvZ1_rtwpOwJHznI" name="第 1 页">
    <mxGraphModel dx="1422" dy="832" grid="1" gridSize="10" guides="1" tooltips="1" connect="1" arrows="1" fold="1" page="1" pageScale="1" pageWidth="827" pageHeight="1169" math="0" shadow="0">
      <root>
        <mxCell id="0" />
        <mxCell id="1" parent="0" />
        <mxCell id="Usq_VIMwkRZ0mWn7CJXT-10" style="edgeStyle=orthogonalEdgeStyle;rounded=0;orthogonalLoop=1;jettySize=auto;html=1;entryX=0;entryY=0.5;entryDx=0;entryDy=0;fontSize=16;" edge="1" parent="1" source="SNSrw8g57S1mAD18resI-10" target="Usq_VIMwkRZ0mWn7CJXT-1">
          <mxGeometry relative="1" as="geometry" />
        </mxCell>
        <mxCell id="SNSrw8g57S1mAD18resI-10" value="" style="rounded=0;whiteSpace=wrap;html=1;fontSize=16;" parent="1" vertex="1">
          <mxGeometry x="202" y="430" width="370" height="160" as="geometry" />
        </mxCell>
        <mxCell id="SNSrw8g57S1mAD18resI-9" value="本地依赖" style="rounded=0;whiteSpace=wrap;html=1;fontSize=16;" parent="1" vertex="1">
          <mxGeometry x="422" y="500" width="110" height="60" as="geometry" />
        </mxCell>
        <mxCell id="SNSrw8g57S1mAD18resI-12" value="设备实体识别" style="text;html=1;align=center;verticalAlign=middle;resizable=0;points=[];autosize=1;strokeColor=none;fillColor=none;fontSize=16;" parent="1" vertex="1">
          <mxGeometry x="227" y="455" width="110" height="20" as="geometry" />
        </mxCell>
        <mxCell id="SNSrw8g57S1mAD18resI-17" value="" style="edgeStyle=orthogonalEdgeStyle;rounded=0;orthogonalLoop=1;jettySize=auto;html=1;fontSize=16;" parent="1" source="SNSrw8g57S1mAD18resI-16" target="SNSrw8g57S1mAD18resI-9" edge="1">
          <mxGeometry relative="1" as="geometry" />
        </mxCell>
        <mxCell id="SNSrw8g57S1mAD18resI-16" value="上下文" style="rounded=0;whiteSpace=wrap;html=1;fontSize=16;" parent="1" vertex="1">
          <mxGeometry x="252" y="500" width="120" height="60" as="geometry" />
        </mxCell>
        <mxCell id="Usq_VIMwkRZ0mWn7CJXT-5" value="" style="edgeStyle=orthogonalEdgeStyle;rounded=0;orthogonalLoop=1;jettySize=auto;html=1;fontSize=16;" edge="1" parent="1" source="Usq_VIMwkRZ0mWn7CJXT-1" target="Usq_VIMwkRZ0mWn7CJXT-4">
          <mxGeometry relative="1" as="geometry" />
        </mxCell>
        <mxCell id="Usq_VIMwkRZ0mWn7CJXT-1" value="推测算法" style="rounded=0;whiteSpace=wrap;html=1;fontSize=16;" vertex="1" parent="1">
          <mxGeometry x="652" y="435" width="120" height="60" as="geometry" />
        </mxCell>
        <mxCell id="Usq_VIMwkRZ0mWn7CJXT-4" value="规则" style="text;html=1;strokeColor=none;fillColor=none;align=center;verticalAlign=middle;whiteSpace=wrap;rounded=0;fontSize=16;" vertex="1" parent="1">
          <mxGeometry x="682" y="555" width="60" height="30" as="geometry" />
        </mxCell>
        <mxCell id="Usq_VIMwkRZ0mWn7CJXT-8" value="" style="edgeStyle=orthogonalEdgeStyle;rounded=0;orthogonalLoop=1;jettySize=auto;html=1;fontSize=16;" edge="1" parent="1" source="Usq_VIMwkRZ0mWn7CJXT-6" target="SNSrw8g57S1mAD18resI-10">
          <mxGeometry relative="1" as="geometry" />
        </mxCell>
        <mxCell id="Usq_VIMwkRZ0mWn7CJXT-6" value="事务" style="shape=cylinder3;whiteSpace=wrap;html=1;boundedLbl=1;backgroundOutline=1;size=15;fontSize=18;" vertex="1" parent="1">
          <mxGeometry x="62" y="470" width="60" height="80" as="geometry" />
        </mxCell>
      </root>
    </mxGraphModel>
  </diagram>
</mxfile>
